<svg width="50" height="48" viewBox="0 0 50 48" fill="#3d3d3df2" xmlns="http://www.w3.org/2000/svg">
<path d="M43.3132 2.93053H39.5302V1.81895C39.5302 0.808421 38.6529 0 37.5564 0C36.4599 0 35.5826 0.808421 35.5826 1.81895V2.98105H26.8103V1.81895C26.8103 0.808421 25.9331 0 24.8366 0C23.74 0 22.8628 0.808421 22.8628 1.81895V2.98105H14.0357V1.81895C14.0357 0.808421 13.1584 0 12.0619 0C10.9654 0 10.0881 0.808421 10.0881 1.81895V2.98105H6.30509C2.851 2.98105 0 5.60842 0 8.79158V42.1895C0 45.3726 2.851 48 6.30509 48H43.2584C46.7125 48 49.5635 45.3726 49.5635 42.1895V8.74105C49.6183 5.55789 46.8221 2.93053 43.3132 2.93053ZM6.35992 6.56842H10.143V7.73053C10.143 8.74105 11.0202 9.54947 12.1167 9.54947C13.2133 9.54947 14.0905 8.74105 14.0905 7.73053V6.56842H22.9176V7.73053C22.9176 8.74105 23.7949 9.54947 24.8914 9.54947C25.9879 9.54947 26.8652 8.74105 26.8652 7.73053V6.56842H35.6923V7.73053C35.6923 8.74105 36.5695 9.54947 37.6661 9.54947C38.7626 9.54947 39.6398 8.74105 39.6398 7.73053V6.56842H43.4229C44.7387 6.56842 45.8353 7.57895 45.8353 8.79158V12.2274H3.94753V8.79158C3.94753 7.52842 5.04407 6.56842 6.35992 6.56842ZM43.3132 44.4126H6.35992C5.04407 44.4126 3.94753 43.4021 3.94753 42.1895V15.8147H45.6708V42.1895C45.7256 43.4021 44.6291 44.4126 43.3132 44.4126Z" fill="#3d3d3df2"/>
<path d="M14.9677 19.4527H10.1978C9.32054 19.4527 8.60779 20.1095 8.60779 20.9179V22.4842C8.60779 23.2926 9.32054 23.9495 10.1978 23.9495H14.9677C15.8449 23.9495 16.5577 23.2926 16.5577 22.4842V20.9179C16.5577 20.1095 15.8449 19.4527 14.9677 19.4527Z" fill="#3d3d3df2"/>
<path d="M39.4206 19.4527H34.7055C33.8282 19.4527 33.1155 20.1095 33.1155 20.9179V22.4842C33.1155 23.2926 33.8282 23.9495 34.7055 23.9495H39.4754C40.3526 23.9495 41.0654 23.2926 41.0654 22.4842V20.9179C41.0654 20.1095 40.3526 19.4527 39.4206 19.4527Z" fill="#3d3d3df2"/>
<path d="M27.1941 19.4527H22.4242C21.547 19.4527 20.8342 20.1095 20.8342 20.9179V22.4842C20.8342 23.2926 21.547 23.9495 22.4242 23.9495H27.1941C28.0714 23.9495 28.7841 23.2926 28.7841 22.4842V20.9179C28.7841 20.1095 28.0714 19.4527 27.1941 19.4527Z" fill="#3d3d3df2"/>
<path d="M14.9677 27.9411H10.1978C9.32054 27.9411 8.60779 28.5979 8.60779 29.4063V30.9726C8.60779 31.781 9.32054 32.4379 10.1978 32.4379H14.9677C15.8449 32.4379 16.5577 31.781 16.5577 30.9726V29.4063C16.5577 28.5979 15.8449 27.9411 14.9677 27.9411Z" fill="#3d3d3df2"/>
<path d="M39.4206 27.9411H34.7055C33.8282 27.9411 33.1155 28.5979 33.1155 29.4063V30.9726C33.1155 31.781 33.8282 32.4379 34.7055 32.4379H39.4754C40.3526 32.4379 41.0654 31.781 41.0654 30.9726V29.4063C41.0654 28.5979 40.3526 27.9411 39.4206 27.9411Z" fill="#3d3d3df2"/>
<path d="M27.1941 27.9411H22.4242C21.547 27.9411 20.8342 28.5979 20.8342 29.4063V30.9726C20.8342 31.781 21.547 32.4379 22.4242 32.4379H27.1941C28.0714 32.4379 28.7841 31.781 28.7841 30.9726V29.4063C28.7841 28.5979 28.0714 27.9411 27.1941 27.9411Z" fill="#3d3d3df2"/>
<path d="M14.9677 36.48H10.1978C9.32054 36.48 8.60779 37.1369 8.60779 37.9453V39.5116C8.60779 40.32 9.32054 40.9769 10.1978 40.9769H14.9677C15.8449 40.9769 16.5577 40.32 16.5577 39.5116V37.9453C16.5577 37.1369 15.8449 36.48 14.9677 36.48Z" fill="#3d3d3df2"/>
<path d="M39.4206 36.48H34.7055C33.8282 36.48 33.1155 37.1369 33.1155 37.9453V39.5116C33.1155 40.32 33.8282 40.9769 34.7055 40.9769H39.4754C40.3526 40.9769 41.0654 40.32 41.0654 39.5116V37.9453C41.0654 37.1369 40.3526 36.48 39.4206 36.48Z" fill="#3d3d3df2"/>
<path d="M27.1941 36.48H22.4242C21.547 36.48 20.8342 37.1369 20.8342 37.9453V39.5116C20.8342 40.32 21.547 40.9769 22.4242 40.9769H27.1941C28.0714 40.9769 28.7841 40.32 28.7841 39.5116V37.9453C28.7841 37.1369 28.0714 36.48 27.1941 36.48Z" fill="#3d3d3df2"/>
</svg>
