<svg width="48" height="36" viewBox="0 0 48 36" fill="none" xmlns="http://www.w3.org/2000/svg">
<path d="M37.0261 36C37.15 36 37.2739 35.9748 37.3903 35.9261C37.5074 35.8771 37.6121 35.8053 37.6999 35.716L37.7031 35.7138C37.7242 35.6921 37.7318 35.6636 37.7505 35.6404C37.8094 35.5678 37.8666 35.4936 37.9023 35.4054C37.9359 35.3225 37.9446 35.2348 37.954 35.1471C37.9579 35.1121 37.9744 35.0815 37.9744 35.0455V10.1761C37.9744 10.14 37.9579 10.1095 37.954 10.0744C37.9446 9.98677 37.9359 9.89911 37.9023 9.8162C37.8666 9.728 37.8094 9.65382 37.7505 9.58116C37.7318 9.55796 37.7242 9.52948 37.7031 9.50774L37.6999 9.5056C37.6126 9.41663 37.5085 9.34482 37.392 9.29582C37.2765 9.24721 37.1534 9.22317 37.0301 9.2224L37.0261 9.22156H0.94843L0.944018 9.22248C0.820482 9.22317 0.69725 9.24721 0.581625 9.29597C0.465543 9.34497 0.361709 9.41686 0.27461 9.5056L0.271415 9.50774C0.250496 9.52925 0.243041 9.55743 0.224556 9.58032C0.165298 9.6532 0.107866 9.7277 0.0720375 9.81635C0.0386432 9.89865 0.0301995 9.98601 0.0206147 10.0731C0.0166592 10.1086 0 10.1395 0 10.1761V35.0455C0 35.0821 0.0166592 35.113 0.0206147 35.1485C0.0301994 35.2356 0.0386431 35.3229 0.0720375 35.4052C0.107866 35.4939 0.165298 35.5684 0.224556 35.6412C0.243041 35.6641 0.250496 35.6923 0.271415 35.7138L0.27461 35.716C0.362317 35.8053 0.466989 35.877 0.583983 35.9261C0.700445 35.9748 0.82421 36 0.94843 36H37.0261ZM18.3232 28.6659C18.5075 28.8477 18.7473 28.939 18.9872 28.939C19.2271 28.939 19.467 28.8477 19.6513 28.6659L24.4304 23.9479L34.7049 34.091H3.26938L13.5436 23.9474L18.3232 28.6659ZM25.7846 22.6109L36.0776 12.4493V32.7722L25.7846 22.6109ZM23.7537 21.9421L18.9872 26.6478L3.26945 11.1306H34.705L23.7537 21.9421ZM12.1893 22.6104L1.89678 32.7722V12.4493L12.1893 22.6104Z" fill="#255C99"/>
<path d="M37.0261 0C36.5019 0 36.0776 0.426898 36.0776 0.954473C36.0776 1.48212 36.5019 1.90902 37.0261 1.90902C41.7115 1.90902 45.5226 5.74475 45.5226 10.4604C45.5226 10.988 45.9469 11.4149 46.471 11.4149C46.9952 11.4149 47.4194 10.988 47.4194 10.4604C47.4194 4.69236 42.7571 0 37.0261 0Z" fill="#255C99"/>
<path d="M35.5131 4.49153C34.9889 4.49153 34.5647 4.91851 34.5647 5.44608C34.5647 5.97366 34.9889 6.40055 35.5131 6.40055C38.1471 6.40055 40.2903 8.55755 40.2903 11.2094C40.2903 11.7371 40.7144 12.164 41.2386 12.164C41.7628 12.164 42.1871 11.7371 42.1871 11.2094C42.1871 7.50516 39.1927 4.49153 35.5131 4.49153Z" fill="#255C99"/>
</svg>
