<?xml version="1.0" encoding="utf-8"?>
<!-- Generator: Adobe Illustrator 23.0.0, SVG Export Plug-In . SVG Version: 6.00 Build 0)  -->
<svg version="1.1" id="Capa_1" xmlns="http://www.w3.org/2000/svg" xmlns:xlink="http://www.w3.org/1999/xlink" x="0px" y="0px"
	 viewBox="0 0 180 50" style="enable-background:new 0 0 180 50;" xml:space="preserve">
<style type="text/css">
	.st0{fill:#002D8A;}
	.st1{fill:#007F96;}
	.st2{fill:#76B1BF;}
	.st3{fill:#7CB3C2;}
	.st4{fill:#7CB4C2;}
	.st5{fill:#7DB4C2;}
	.st6{fill:#80B6C4;}
	.st7{fill:#7FB5C3;}
	.st8{fill:#8ABCC9;}
	.st9{fill:#83B7C5;}
	.st10{fill:#82B6C4;}
	.st11{fill:#85B9C6;}
	.st12{fill:#89BBC9;}
	.st13{fill:#85B9C7;}
	.st14{fill:#87B9C7;}
	.st15{fill:#81B7C5;}
	.st16{fill:#82B8C6;}
	.st17{fill:#81B7C4;}
	.st18{fill:#7BB3C1;}
	.st19{fill:#7BB3C2;}
	.st20{fill:#7BB2C1;}
	.st21{fill:#84B8C6;}
	.st22{fill:#80B5C3;}
	.st23{fill:#86B8C6;}
	.st24{fill:#80B5C4;}
</style>
<g>
	<g>
		<g>
			<rect x="0.76" y="19.51" class="st0" width="12.43" height="12.43"/>
		</g>
		<g>
			<rect x="13.2" y="7.07" class="st0" width="12.43" height="12.43"/>
		</g>
		<g>
			<rect x="13.2" y="31.94" class="st0" width="12.43" height="12.43"/>
		</g>
		<g>
			<rect x="25.63" y="19.51" class="st0" width="12.43" height="12.43"/>
		</g>
	</g>
	<g>
		<g>
			<path class="st1" d="M159.85,43.88c0.44-0.69,0.89-1.38,1.33-2.07c1.57-2.45,3.14-4.9,4.69-7.36c0.21-0.34,0.39-0.44,0.8-0.33
				c2.98,0.8,5.96,1.57,8.95,2.32c0.54,0.13,0.49,0.3,0.22,0.67c-3.54,4.98-8.3,8.03-14.38,8.83c-9.23,1.22-17.86-3.62-21.72-12.07
				c-0.35-0.76-0.35-0.76,0.42-1.05c2.81-1.05,5.62-2.11,8.44-3.16c0.25-0.09,0.47-0.12,0.74-0.04c3.06,0.81,6.12,1.61,9.18,2.39
				c0.41,0.1,0.53,0.27,0.55,0.67c0.2,3.71,0.43,7.43,0.65,11.14C159.77,43.84,159.81,43.86,159.85,43.88z"/>
		</g>
		<g>
			<path class="st2" d="M160.61,40.94c-0.15-0.26-0.17-0.49-0.18-0.72c-0.16-2.8-0.33-5.61-0.48-8.41c-0.02-0.37-0.2-0.44-0.5-0.52
				c-2.91-0.75-5.81-1.51-8.83-2.3c0.84-0.45,1.64-0.7,2.41-1.01c2.04-0.81,4.08-1.62,6.14-2.4c0.44-0.17,0.41-0.45,0.39-0.8
				c-0.19-2.9-0.38-5.8-0.56-8.7c0-0.07,0-0.15,0-0.37c0.99,1.21,1.91,2.31,2.82,3.42c1.02,1.24,2.04,2.47,3.05,3.72
				c0.22,0.27,0.4,0.33,0.75,0.2c2.66-1.06,5.34-2.1,8.01-3.14c0.12-0.05,0.24-0.15,0.49-0.07c-0.34,0.54-0.66,1.06-0.99,1.57
				c-1.29,2.02-2.58,4.04-3.88,6.05c-0.21,0.32-0.19,0.51,0.06,0.8c1.89,2.26,3.76,4.55,5.63,6.83c0.04,0.05,0.06,0.13,0.12,0.27
				c-2.13-0.55-4.19-1.09-6.25-1.63c-0.82-0.21-1.65-0.39-2.46-0.65c-0.44-0.14-0.67-0.05-0.91,0.34c-1.45,2.31-2.93,4.61-4.41,6.91
				C160.9,40.53,160.76,40.72,160.61,40.94z"/>
		</g>
		<g>
			<path class="st3" d="M145.73,25.41c0.09,0,0.16,0.02,0.18,0.12c0.02,0.09-0.01,0.16-0.09,0.2c-0.16,0.07-0.32,0.15-0.49,0.2
				c-0.3,0.1-0.42,0.25-0.28,0.57c0.13,0.31,0.31,0.38,0.6,0.24c0.02-0.01,0.04-0.02,0.05-0.02c0.2-0.03,0.46-0.31,0.57-0.03
				c0.12,0.3-0.27,0.29-0.43,0.34c-0.44,0.13-0.49,0.31-0.32,0.74c0.18,0.47,0.42,0.26,0.69,0.21c0.21-0.04,0.51-0.35,0.61-0.09
				c0.14,0.35-0.3,0.32-0.51,0.4c-0.88,0.36-0.89,0.35-1.24-0.55c-0.17-0.42-0.29-0.86-0.49-1.26c-0.23-0.46-0.08-0.66,0.38-0.78
				C145.22,25.62,145.48,25.5,145.73,25.41z"/>
		</g>
		<g>
			<path class="st4" d="M140.54,28.29c0-0.74,0.71-1.47,1.43-1.47c0.1,0,0.2,0.01,0.23,0.13c0.03,0.13-0.05,0.17-0.15,0.2
				c-0.11,0.03-0.23,0.07-0.34,0.11c-0.73,0.26-0.95,0.77-0.67,1.49c0.26,0.67,0.8,0.89,1.49,0.64c0.17-0.06,0.4-0.39,0.54-0.09
				c0.13,0.26-0.24,0.31-0.41,0.4C141.6,30.25,140.54,29.55,140.54,28.29z"/>
		</g>
		<g>
			<path class="st4" d="M149.13,24.19c0.55-0.41,1.23-0.5,1.84-0.79c0.1-0.05,0.2-0.01,0.25,0.09c0.08,0.16-0.05,0.23-0.16,0.25
				c-0.69,0.13-0.48,0.53-0.31,0.94c0.17,0.4,0.33,0.8,0.47,1.21c0.06,0.16,0.26,0.39-0.01,0.51c-0.3,0.14-0.3-0.18-0.37-0.33
				c-0.19-0.45-0.37-0.91-0.53-1.38c-0.13-0.41-0.31-0.65-0.75-0.37C149.33,24.46,149.24,24.29,149.13,24.19L149.13,24.19z"/>
		</g>
		<g>
			<path class="st5" d="M177.12,22.63c0.47-0.19,0.95-0.24,1.44-0.24c0.11,0,0.25-0.02,0.28,0.14c0.02,0.11-0.05,0.18-0.13,0.24
				c-0.31,0.24-0.62,0.48-0.96,0.75c0.33,0.14,0.6-0.02,0.88-0.03c0.13,0,0.31-0.06,0.32,0.15c0,0.15-0.16,0.14-0.27,0.15
				c-0.41,0.04-0.83-0.01-1.24,0.1c-0.09,0.03-0.21,0.01-0.26-0.08c-0.08-0.14,0.03-0.22,0.12-0.3c0.33-0.27,0.67-0.53,1.1-0.86
				C177.9,22.68,177.5,22.84,177.12,22.63z"/>
		</g>
		<g>
			<path class="st6" d="M145.03,11.36c-0.1-0.42-0.54-0.52-0.53-1c0.41,0.38,0.85,0.73,1.22,1.14c0.15,0.16-0.04,0.26-0.23,0.23
				c-0.42-0.08-0.85-0.16-1.29-0.24c0.17,0.39,0.63,0.54,0.76,0.94c-0.04,0.04-0.08,0.08-0.12,0.13c-0.39-0.38-0.79-0.76-1.18-1.14
				c-0.05-0.05-0.09-0.13-0.02-0.21c0.07-0.08,0.17-0.09,0.27-0.07C144.27,11.2,144.64,11.28,145.03,11.36z"/>
		</g>
		<g>
			<path class="st6" d="M176.95,19.26c0.45,0.01,0.77-0.3,1.33-0.23c-0.6,0.42-1.18,0.53-1.72,0.66c-0.2,0.05-0.18-0.19-0.06-0.33
				c0.26-0.31,0.51-0.63,0.79-0.97c-0.43-0.06-0.75,0.3-1.26,0.13c0.56-0.33,1.09-0.47,1.6-0.57c0.27-0.06,0.2,0.25,0.07,0.41
				C177.47,18.65,177.23,18.93,176.95,19.26z"/>
		</g>
		<g>
			<path class="st7" d="M173.86,13.34c0.4-0.25,0.64-0.57,1.01-0.68c-0.07,0.27-1,1.17-1.2,1.15c-0.27-0.02-0.17-0.23-0.14-0.36
				c0.12-0.39,0.27-0.78,0.44-1.24c-0.39,0.29-0.72,0.54-1.1,0.81c0.06-0.3,1.01-1.25,1.23-1.26c0.23-0.01,0.24,0.14,0.18,0.31
				C174.15,12.46,174.02,12.85,173.86,13.34z"/>
		</g>
		<g>
			<path class="st5" d="M149.12,24.18c0.19,0.77,0.54,1.48,0.8,2.22c0.05,0.15,0.28,0.38-0.01,0.5c-0.28,0.12-0.31-0.18-0.37-0.34
				c-0.26-0.64-0.49-1.29-0.74-1.93C148.64,24.26,148.79,24.16,149.12,24.18C149.13,24.19,149.12,24.18,149.12,24.18z"/>
		</g>
		<g>
			<path class="st6" d="M178.24,30.53c-0.47,0.13-0.74-0.1-1.04-0.14c-0.25-0.03-0.59-0.18-0.7,0.2c-0.11,0.37,0.19,0.46,0.46,0.56
				c0.3,0.11,0.63,0.16,0.94,0.37c-0.74,0.26-1.71-0.29-1.65-0.89c0.03-0.37,0.23-0.62,0.6-0.59
				C177.3,30.06,177.75,30.2,178.24,30.53z"/>
		</g>
		<g>
			<path class="st8" d="M159.41,5.41c-0.18,0.24-0.63-0.08-0.66,0.38c-0.03,0.52,0.53,0.18,0.71,0.5c-0.38,0.07-0.71,0.17-1.02-0.06
				c-0.07-0.05-0.04-1.53,0.03-1.58c0.3-0.21,0.63-0.11,0.96-0.06c-0.1,0.38-0.65-0.02-0.66,0.43
				C158.76,5.47,159.32,5.1,159.41,5.41z"/>
		</g>
		<g>
			<path class="st9" d="M143.22,11.89c0.04,0.33-0.5,0.52-0.14,0.83c0.39,0.34,0.32-0.49,0.72-0.23c0.08,0.22-0.51,0.45-0.09,0.75
				c0.48,0.34,0.39-0.49,0.76-0.37c-0.16,0.79-0.49,0.93-1.1,0.45c-0.11-0.09-0.22-0.17-0.33-0.25
				C142.4,12.6,142.44,12.32,143.22,11.89z"/>
		</g>
		<g>
			<path class="st10" d="M168.32,8.98c-0.37-0.12-0.71-0.19-0.87-0.55c-0.04-0.08,0.73-1.42,0.81-1.42c0.35,0,0.6,0.2,0.84,0.44
				c-0.29,0.26-0.59-0.42-0.83,0.06c-0.22,0.43,0.43,0.31,0.4,0.64c-0.25,0.21-0.56-0.44-0.79,0.05
				C167.64,8.68,168.31,8.57,168.32,8.98z"/>
		</g>
		<g>
			<path class="st6" d="M173.64,11.26c-0.33,0.12-0.4-0.65-0.8-0.24c-0.33,0.34,0.38,0.41,0.2,0.73c-0.29,0.13-0.39-0.65-0.78-0.17
				c-0.34,0.42,0.35,0.45,0.25,0.76c-0.73-0.22-0.84-0.56-0.33-1.05c0.13-0.12,0.25-0.25,0.38-0.38
				C173.08,10.39,173.37,10.48,173.64,11.26z"/>
		</g>
		<g>
			<path class="st6" d="M178.63,21.69c-0.23-0.17-0.07-0.69-0.52-0.59c-0.43,0.09-0.01,0.49-0.23,0.68
				c-0.31-0.07-0.07-0.71-0.58-0.56c-0.52,0.15,0.05,0.57-0.2,0.79c-0.48-0.66-0.4-0.93,0.34-1.09c0.17-0.04,0.35-0.06,0.53-0.08
				C178.64,20.72,178.77,20.88,178.63,21.69z"/>
		</g>
		<g>
			<path class="st11" d="M164.77,5.57c-0.08,0.09-0.18,0.06-0.27,0.02c-0.16-0.07-0.31-0.1-0.42,0.06
				c-0.13,0.19,0.04,0.28,0.14,0.39c0.04,0.04,0.09,0.08,0.13,0.12c0.28,0.27,0.38,0.56,0.04,0.86c-0.31,0.26-0.67,0.16-0.94-0.25
				c0.13-0.12,0.22,0.02,0.32,0.06c0.18,0.08,0.34,0.12,0.47-0.07c0.14-0.21-0.02-0.33-0.16-0.44c-0.29-0.23-0.49-0.5-0.2-0.85
				C164.1,5.19,164.38,5.24,164.77,5.57z"/>
		</g>
		<g>
			<path class="st12" d="M138.54,24c0.12,0.52,0.11,1.13,0.87,1.1c0.64-0.03,0.64-0.55,0.63-1.1c0.44,0.38,0.29,0.72,0.09,1.03
				c-0.25,0.38-0.81,0.48-1.27,0.23C138.29,24.98,138.39,24.5,138.54,24z"/>
		</g>
		<g>
			<path class="st13" d="M157.96,6.22c-0.42,0.37-0.84,0.27-1.17-0.04c-0.36-0.33-0.38-0.78-0.13-1.2c0.25-0.42,0.65-0.5,1.13-0.33
				c-0.51,0.16-1.08,0.24-0.94,0.98C156.98,6.28,157.48,6.2,157.96,6.22z"/>
		</g>
		<g>
			<path class="st14" d="M149.48,8.68c0.07-0.24,0.23-0.18,0.32-0.25c0.13-0.1,0.28-0.18,0.22-0.37c-0.05-0.15-0.19-0.19-0.34-0.19
				c-0.08,0-0.16,0.01-0.24,0c-0.32-0.03-0.63-0.16-0.6-0.52c0.03-0.38,0.3-0.56,0.69-0.53c0.06,0.23-0.11,0.21-0.2,0.26
				c-0.13,0.07-0.23,0.17-0.17,0.33c0.05,0.14,0.18,0.13,0.29,0.14c0.06,0,0.12,0,0.18,0c0.39-0.01,0.7,0.17,0.67,0.57
				C150.27,8.55,149.94,8.72,149.48,8.68z"/>
		</g>
		<g>
			<path class="st15" d="M176.04,14.51c-0.37-0.38-0.66-0.94-1.3-0.45c-0.54,0.41-0.23,0.82,0.15,1.34
				c-0.59-0.18-0.72-0.53-0.73-0.91c-0.01-0.44,0.49-0.88,0.97-0.87C175.67,13.63,175.98,13.94,176.04,14.51z"/>
		</g>
		<g>
			<path class="st15" d="M177.3,25.12c0.15,0.19,0.1,0.28,0.07,0.38c-0.06,0.19-0.05,0.36,0.16,0.45c0.2,0.09,0.34-0.02,0.42-0.21
				c0.01-0.02,0.02-0.03,0.03-0.05c0.15-0.31,0.36-0.57,0.74-0.37c0.36,0.19,0.31,0.53,0.21,0.86c-0.21-0.02-0.18-0.13-0.18-0.22
				c0-0.16,0-0.35-0.18-0.4c-0.23-0.06-0.29,0.16-0.37,0.3c-0.19,0.35-0.44,0.63-0.83,0.33C177,25.91,177.03,25.54,177.3,25.12z"/>
		</g>
		<g>
			<path class="st15" d="M159.91,6.22c0.05-0.02,0.11-0.07,0.15-0.06c0.23,0.06,0.51,0.19,0.64-0.08c0.15-0.32-0.2-0.42-0.4-0.55
				c-0.3-0.21-0.4-0.47-0.13-0.74c0.25-0.25,0.56-0.32,0.85-0.02c-0.12,0.2-0.24,0.07-0.34,0.06c-0.15-0.02-0.29,0.03-0.34,0.18
				c-0.06,0.15,0.03,0.27,0.16,0.34c0.05,0.03,0.1,0.06,0.16,0.08c0.3,0.15,0.47,0.38,0.33,0.72c-0.14,0.34-0.46,0.34-0.76,0.3
				C160.1,6.43,159.94,6.41,159.91,6.22z"/>
		</g>
		<g>
			<path class="st6" d="M171.67,9.21c0.33,0.29,0.66,0.57,0.98,0.86c-0.81-0.34-0.96,0.4-1.33,0.74c-0.1,0.09-0.18,0.33-0.36,0.16
				c-0.12-0.12,0.05-0.25,0.12-0.35c0.07-0.1,0.17-0.17,0.24-0.26c0.24-0.32,0.88-0.55,0.01-1.14
				C171.45,9.22,171.56,9.22,171.67,9.21z"/>
		</g>
		<g>
			<path class="st12" d="M139.05,21.18c0.19,0.04,0.38,0.09,0.57,0.13c0.37,0.07,0.79,0.22,0.82-0.41c0.01-0.12,0.08-0.19,0.19-0.15
				c0.14,0.05,0.05,0.15,0.04,0.24c-0.13,0.76-0.13,0.76-0.93,0.6c-0.25-0.05-0.5-0.09-0.75-0.14c-0.11-0.02-0.28,0.01-0.27-0.15
				C138.74,21.11,138.91,21.16,139.05,21.18z"/>
		</g>
		<g>
			<path class="st16" d="M147.61,9.9c-0.52,0.83-0.78,0.85-1.28,0.21c-0.18-0.23-0.37-0.47-0.54-0.7c-0.05-0.06-0.09-0.14-0.02-0.21
				c0.1-0.11,0.19-0.03,0.25,0.04c0.12,0.13,0.21,0.28,0.33,0.42C146.86,10.28,146.86,10.28,147.61,9.9z"/>
		</g>
		<g>
			<path class="st15" d="M178.55,29.05c-0.33,0.23-0.57,0.05-0.79-0.01c-0.49-0.14-0.92-0.24-0.98,0.58
				c-0.29-0.4-0.09-0.7,0.02-0.94c0.09-0.22,0.35-0.05,0.53-0.01C177.72,28.76,178.14,28.78,178.55,29.05z"/>
		</g>
		<g>
			<path class="st17" d="M176.5,15.17c-0.42,0.37-0.94,0.58-1.43,0.84c-0.09,0.04-0.17-0.01-0.17-0.09c0-0.06,0.06-0.14,0.12-0.17
				c0.46-0.25,0.92-0.5,1.38-0.75C176.43,15.06,176.46,15.12,176.5,15.17z"/>
		</g>
		<g>
			<path class="st9" d="M140.83,20.22c-0.68,0.05-1.2-0.27-1.85-0.36C139.41,19.62,140.33,19.82,140.83,20.22z"/>
		</g>
		<g>
			<path class="st18" d="M156.02,22.99l0.01,0.01c-0.6-1.05-1.53-1.24-2.54-0.54c-0.19,0.13-0.2,0.24-0.12,0.44
				c0.27,0.68,0.53,1.36,0.78,2.05c0.08,0.23,0.19,0.28,0.44,0.21C155.79,24.84,156.2,24.23,156.02,22.99z M154.77,24.74
				c-0.23,0.05-0.27-0.08-0.32-0.23c-0.19-0.51-0.38-1.03-0.59-1.54c-0.1-0.23-0.02-0.31,0.17-0.4c0.84-0.43,1.64,0.08,1.65,1.07
				C155.67,24.16,155.27,24.63,154.77,24.74z"/>
		</g>
		<g>
			<path class="st19" d="M148.19,24.85c-0.43-0.18-1.49,0.02-1.8,0.33c-0.14,0.13-0.13,0.27-0.07,0.43
				c0.26,0.68,0.52,1.36,0.77,2.04c0.06,0.15,0.13,0.22,0.29,0.23c0.77,0.01,1.63-0.81,1.63-1.58
				C149.02,25.63,148.69,25.06,148.19,24.85z M147.75,27.39c-0.22,0.03-0.32-0.07-0.39-0.26c-0.13-0.35-0.27-0.7-0.41-1.05
				c-0.29-0.73-0.09-1,0.72-0.96c0.53,0.03,0.97,0.56,0.98,1.21C148.65,26.8,148.19,27.33,147.75,27.39z"/>
		</g>
		<g>
			<g>
				<polygon class="st20" points="156.03,23 156.03,23 156.02,22.99 				"/>
			</g>
			<g>
				<path class="st20" d="M158.64,22.31c-0.11-0.75-0.82-1.37-1.46-1.3c-0.76,0.09-1.2,0.66-1.18,1.51c0,0.16,0.02,0.32,0.02,0.47
					c0.04,0.06,0.09,0.11,0.13,0.18c0.42,0.71,1,1,1.59,0.79C158.49,23.71,158.77,23.17,158.64,22.31z M157.51,23.69
					c-0.57,0.03-1.12-0.66-1.12-1.39c0-0.54,0.31-0.86,0.83-0.87c0.57-0.01,1.07,0.63,1.06,1.35
					C158.27,23.24,157.91,23.67,157.51,23.69z"/>
			</g>
		</g>
		<g>
			<path class="st3" d="M145.03,28.45c-0.15-0.21-0.26-0.47-0.45-0.62c-0.24-0.18-0.3-0.31-0.19-0.62c0.18-0.49-0.22-0.99-0.76-0.98
				c-0.19,0.05-0.42,0.13-0.64,0.19c-0.46,0.12-0.58,0.36-0.37,0.81c0.25,0.54,0.43,1.1,0.65,1.65c0.07,0.17,0.04,0.51,0.36,0.4
				c0.34-0.12,0.03-0.37,0.03-0.55c0-0.05-0.06-0.11-0.06-0.16c-0.02-0.2-0.35-0.4,0.04-0.58c0.3-0.14,0.53-0.09,0.72,0.18
				c0.12,0.18,0.24,0.37,0.37,0.54c0.1,0.13,0.23,0.15,0.36,0.04C145.22,28.63,145.09,28.54,145.03,28.45z M143.42,27.72
				c-0.33-0.1-0.34-0.44-0.41-0.7c-0.11-0.4,0.29-0.38,0.5-0.42c0.3-0.06,0.47,0.14,0.51,0.44
				C144.06,27.46,143.75,27.58,143.42,27.72z"/>
		</g>
		<g>
			<path class="st3" d="M140.84,29.84c-0.41-0.53-0.83-1.05-1.27-1.56c-0.14-0.16-0.21-0.45-0.54-0.34
				c-0.37,0.11-0.23,0.4-0.25,0.64c-0.01,0.1,0,0.2,0,0.3c0.04,0.57,0.07,1.14,0.13,1.71c0.02,0.16-0.13,0.46,0.19,0.43
				c0.28-0.02,0.31-0.3,0.24-0.51c-0.14-0.41,0.05-0.55,0.4-0.69c0.37-0.15,0.58-0.11,0.76,0.25c0.09,0.18,0.27,0.43,0.51,0.24
				C141.27,30.08,140.93,29.96,140.84,29.84z M139.32,29.58c-0.32-0.26-0.15-0.67-0.2-1.18c0.33,0.38,0.55,0.64,0.8,0.93
				C139.74,29.51,139.46,29.69,139.32,29.58z"/>
		</g>
		<g>
			<path class="st3" d="M153.79,24.97c-0.47-0.59-0.94-1.17-1.42-1.75c-0.11-0.13-0.22-0.29-0.44-0.2c-0.2,0.09-0.21,0.25-0.21,0.44
				c0.01,0.34,0,0.67,0,1.01c0.01,0,0.02,0,0.03,0c0,0.4,0,0.79,0,1.19c0,0.18-0.01,0.4,0.24,0.4c0.28,0,0.23-0.24,0.2-0.4
				c-0.07-0.45,0.14-0.65,0.54-0.81c0.47-0.19,0.53,0.2,0.73,0.39c0.14,0.13,0.27,0.28,0.45,0.11
				C154.11,25.17,153.88,25.08,153.79,24.97z M152.12,24.72c0-0.37,0-0.69,0-1.1c0.26,0.29,0.61,0.49,0.62,0.83
				C152.75,24.63,152.38,24.67,152.12,24.72z"/>
		</g>
		<g>
			<path class="st21" d="M142.05,14.13c-0.39-0.1-0.89,0.26-1.06,0.75c-0.18,0.53,0.37,0.43,0.57,0.65c0.08,0.08,0.19,0.15,0.3,0.19
				c0.21,0.08,0.4,0.37,0.63,0.21c0.28-0.2,0.37-0.54,0.43-0.82C142.87,14.52,142.52,14.25,142.05,14.13z M142.31,15.61
				c-0.2,0.04-1.05-0.58-1.01-0.72c0.09-0.28,0.29-0.46,0.61-0.47c0.36,0,0.67,0.31,0.68,0.69
				C142.58,15.31,142.6,15.56,142.31,15.61z"/>
		</g>
		<g>
			<path class="st10" d="M147.9,7.76c-0.48,0.01-0.81,0.35-0.81,0.83c0,0.53,0.51,1.08,0.99,1.05c0.43-0.02,0.81-0.44,0.8-0.88
				C148.87,8.28,148.36,7.75,147.9,7.76z M148.11,9.33c-0.47-0.04-0.68-0.38-0.74-0.79c-0.04-0.33,0.18-0.54,0.5-0.51
				c0.47,0.04,0.65,0.38,0.68,0.65C148.56,9.15,148.44,9.35,148.11,9.33z"/>
		</g>
		<g>
			<path class="st21" d="M155.28,4.79c-0.51-0.01-0.83,0.35-0.83,0.92c0,0.63,0.31,0.98,0.85,0.98c0.46,0,0.84-0.4,0.84-0.89
				C156.14,5.25,155.77,4.8,155.28,4.79z M155.32,6.44c-0.44-0.02-0.57-0.37-0.59-0.75c-0.02-0.37,0.15-0.66,0.53-0.63
				c0.42,0.03,0.55,0.39,0.54,0.92C155.79,6.16,155.7,6.46,155.32,6.44z"/>
		</g>
		<g>
			<path class="st7" d="M177.21,32.26c-0.49-0.11-0.91-0.7-1.42-0.4c-0.28,0.17-0.38,0.69-0.19,1.09c0.18,0.36,0.51,0.54,0.9,0.59
				c0.41,0.01,0.84-0.43,0.95-0.91C177.51,32.38,177.4,32.3,177.21,32.26z M177.15,32.78c-0.1,0.26-0.29,0.47-0.62,0.45
				c-0.42,0-0.79-0.35-0.75-0.74c0.04-0.29,0.12-0.56,0.52-0.33c0.15,0.09,0.33,0.13,0.48,0.22
				C176.94,32.47,177.28,32.46,177.15,32.78z"/>
		</g>
		<g>
			<path class="st6" d="M176.48,15.99c-0.53-0.01-1.06,0.46-1.06,0.93c0,0.44,0.39,0.82,0.84,0.83c0.51,0.01,1.05-0.46,1.05-0.93
				C177.32,16.38,176.93,15.99,176.48,15.99z M177.06,16.82c-0.04,0.45-0.42,0.57-0.76,0.61c-0.37,0-0.63-0.13-0.6-0.47
				c0.04-0.44,0.37-0.62,0.79-0.64C176.82,16.3,177.09,16.45,177.06,16.82z"/>
		</g>
		<g>
			<path class="st6" d="M166.58,6.12c-0.56-0.06-0.48,0.49-0.63,0.77c-0.13,0.25-0.5,0.57-0.15,0.87c0.3,0.26,0.7,0.35,1.11,0.16
				c0.35-0.17,0.5-0.48,0.54-0.76C167.46,6.6,167.1,6.17,166.58,6.12z M166.45,7.77c-0.21-0.03-0.52-0.07-0.41-0.35
				c0.14-0.36,0.14-0.91,0.58-1.01c0.3-0.07,0.59,0.27,0.55,0.63C167.12,7.42,166.93,7.75,166.45,7.77z"/>
		</g>
		<g>
			<path class="st15" d="M140.46,17.75c-0.55-0.08-0.96,0.22-1.09,0.82c-0.14,0.62,0.46,0.43,0.7,0.62
				c0.09,0.07,0.22,0.08,0.33,0.12c0.61,0.2,0.85,0.03,0.87-0.64C141.29,18.21,140.95,17.82,140.46,17.75z M140.92,19.05
				c-0.14,0.2-0.28,0-0.42-0.01c-0.13-0.01-0.27-0.07-0.39-0.13c-0.19-0.1-0.55-0.07-0.46-0.42c0.08-0.3,0.3-0.5,0.67-0.49
				c0.33,0.04,0.58,0.19,0.69,0.54C141.06,18.72,141.02,18.9,140.92,19.05z"/>
		</g>
		<g>
			<path class="st22" d="M162.38,4.83c-0.46,0-0.87,0.46-0.89,1c-0.01,0.53,0.29,0.87,0.81,0.88c0.53,0.01,0.87-0.36,0.87-0.96
				C163.18,5.24,162.82,4.83,162.38,4.83z M162.27,6.47c-0.37,0-0.53-0.28-0.5-0.6c0.03-0.38,0.18-0.78,0.64-0.79
				c0.32,0,0.5,0.28,0.51,0.66C162.85,6.08,162.77,6.47,162.27,6.47z"/>
		</g>
		<g>
			<path class="st11" d="M153.84,5.6c0.06-0.3-0.39-0.39-0.7-0.3c-0.21,0.06-0.52,0.08-0.42,0.44c0.11,0.42,0.23,0.84,0.35,1.25
				c0.03,0.11,0.09,0.18,0.21,0.15c0.1-0.02,0.1-0.1,0.09-0.18c-0.03-0.2-0.22-0.47,0.04-0.58c0.33-0.13,0.39,0.24,0.54,0.43
				c0.05,0.05,0.12,0.08,0.33,0.21C154.13,6.44,153.73,6.13,153.84,5.6z M153.35,6.1c-0.26,0.06-0.28-0.14-0.33-0.31
				c-0.05-0.18,0.05-0.25,0.21-0.27c0.2-0.02,0.35,0.04,0.4,0.26C153.63,5.96,153.53,6.06,153.35,6.1z"/>
		</g>
		<g>
			<path class="st23" d="M140.47,16.24c-0.22-0.03-0.36,0.17-0.13,0.39c0.32,0.32,0.64,0.64,0.97,0.96c0.09,0.09,0.2,0.24,0.34,0.07
				c0.1-0.13-0.04-0.2-0.11-0.29c-0.28-0.39-0.19-0.62,0.29-0.7c0.14-0.02,0.28,0.01,0.36-0.24
				C141.63,16.26,141.04,16.31,140.47,16.24z M141.13,16.86c-0.29,0.12-0.31-0.21-0.48-0.32c0.2,0.03,0.43-0.07,0.57,0.13
				C141.25,16.71,141.18,16.84,141.13,16.86z"/>
		</g>
		<g>
			<path class="st6" d="M178.71,27.41c-0.51-0.25-1-0.59-1.69-0.75c0.16,0.4,0.57,0.41,0.54,0.81c-0.03,0.41-0.53,0.22-0.59,0.62
				c0.6-0.03,1.16-0.17,1.71-0.33C178.87,27.7,178.91,27.5,178.71,27.41z M177.8,27.5c-0.02-0.04,0.01-0.14,0.04-0.16
				c0.2-0.07,0.31,0.09,0.45,0.2C178.12,27.61,177.92,27.76,177.8,27.5z"/>
		</g>
		<g>
			<path class="st7" d="M170.62,8.65c-0.42,0.26-0.81,0.55-1.22,0.83c-0.06,0.04-0.16,0.08-0.1,0.18c0.06,0.11,0.14,0.08,0.25,0.05
				c0.64-0.22,0.7-0.17,0.7,0.56c0,0.12,0.03,0.18,0.15,0.2c0.03-0.03,0.07-0.05,0.08-0.08c0.18-0.52,0.38-1.03,0.5-1.56
				C171.04,8.56,170.78,8.54,170.62,8.65z M170.38,9.51c-0.04,0.01-0.16-0.09-0.16-0.15c-0.02-0.23,0.19-0.26,0.44-0.39
				C170.57,9.22,170.63,9.45,170.38,9.51z"/>
		</g>
		<g>
			<path class="st9" d="M152.23,6.12c-0.11-0.23-0.29-0.31-0.49-0.33c-0.57,0.01-0.76,0.29-0.58,0.79c0.12,0.31,0.23,0.63,0.35,0.94
				c0.03,0.09,0.08,0.2,0.19,0.18c0.12-0.02,0.16-0.14,0.1-0.23c-0.2-0.36,0.02-0.52,0.28-0.71C152.28,6.61,152.35,6.37,152.23,6.12
				z M151.68,6.74c-0.24,0.03-0.25-0.21-0.28-0.37c-0.05-0.2,0.08-0.28,0.27-0.29c0.18,0,0.3,0.07,0.31,0.27
				C151.99,6.57,151.86,6.72,151.68,6.74z"/>
		</g>
		<g>
			<path class="st24" d="M140.38,22.17c-0.54,0.12-1.09,0.24-1.63,0.37c-0.18,0.05-0.29,0.24-0.11,0.35
				c0.49,0.31,1.01,0.58,1.6,0.66C139.57,22.95,139.57,22.95,140.38,22.17z M139.56,22.98c-0.24,0.17-0.35-0.15-0.55-0.17
				c0.19-0.07,0.36-0.28,0.55-0.1C139.6,22.76,139.6,22.95,139.56,22.98z"/>
		</g>
	</g>
	<g>
		<path class="st0" d="M49.63,16.25c-0.31,0.16-0.93,0.31-1.73,0.31c-1.85,0-3.24-1.17-3.24-3.32c0-2.05,1.39-3.44,3.42-3.44
			c0.82,0,1.33,0.18,1.56,0.29l-0.2,0.69c-0.32-0.16-0.78-0.27-1.32-0.27c-1.54,0-2.56,0.98-2.56,2.7c0,1.6,0.92,2.63,2.52,2.63
			c0.52,0,1.04-0.11,1.38-0.27L49.63,16.25z"/>
		<path class="st0" d="M52.15,9.92H53v5.84h2.8v0.71h-3.65V9.92z"/>
		<path class="st0" d="M59.04,9.92v6.55H58.2V9.92H59.04z"/>
		<path class="st0" d="M61.98,16.47V9.92h0.92l2.1,3.32c0.49,0.77,0.87,1.46,1.18,2.13l0.02-0.01c-0.08-0.88-0.1-1.67-0.1-2.69V9.92
			h0.8v6.55h-0.86l-2.08-3.32c-0.46-0.73-0.89-1.48-1.22-2.19l-0.03,0.01c0.05,0.83,0.07,1.61,0.07,2.7v2.8H61.98z"/>
		<path class="st0" d="M70.68,9.92v6.55h-0.85V9.92H70.68z"/>
		<path class="st0" d="M78.19,16.25c-0.31,0.16-0.93,0.31-1.73,0.31c-1.85,0-3.24-1.17-3.24-3.32c0-2.05,1.39-3.44,3.42-3.44
			c0.82,0,1.33,0.18,1.56,0.29L78,10.79c-0.32-0.16-0.78-0.27-1.32-0.27c-1.54,0-2.56,0.98-2.56,2.7c0,1.6,0.92,2.63,2.52,2.63
			c0.52,0,1.04-0.11,1.38-0.27L78.19,16.25z"/>
		<path class="st0" d="M81.81,14.41l-0.68,2.06h-0.88l2.23-6.55h1.02l2.24,6.55h-0.9l-0.7-2.06H81.81z M83.95,13.75l-0.64-1.89
			c-0.15-0.43-0.24-0.82-0.34-1.2h-0.02c-0.1,0.39-0.2,0.79-0.33,1.19l-0.64,1.9H83.95z"/>
	</g>
	<g>
		<path class="st0" d="M47.2,19.61v11.91h-1.54V19.61H47.2z"/>
		<path class="st0" d="M49.67,29.65c0.69,0.42,1.7,0.78,2.76,0.78c1.57,0,2.49-0.83,2.49-2.03c0-1.11-0.64-1.75-2.24-2.37
			c-1.94-0.69-3.15-1.7-3.15-3.38c0-1.86,1.54-3.24,3.85-3.24c1.22,0,2.1,0.28,2.63,0.58l-0.42,1.26c-0.39-0.21-1.18-0.57-2.26-0.57
			c-1.63,0-2.24,0.97-2.24,1.79c0,1.11,0.72,1.66,2.37,2.3c2.02,0.78,3.04,1.75,3.04,3.5c0,1.84-1.36,3.43-4.17,3.43
			c-1.15,0-2.4-0.34-3.04-0.76L49.67,29.65z"/>
		<path class="st0" d="M60.52,27.78l-1.24,3.75h-1.59l4.05-11.91h1.86l4.07,11.91h-1.64l-1.27-3.75H60.52z M64.43,26.58l-1.17-3.43
			c-0.26-0.78-0.44-1.49-0.62-2.17h-0.03c-0.18,0.71-0.37,1.43-0.6,2.16l-1.17,3.45H64.43z"/>
		<path class="st0" d="M79.38,26.3c-0.09-1.66-0.19-3.66-0.18-5.14h-0.05c-0.41,1.4-0.9,2.88-1.5,4.53l-2.1,5.78h-1.17l-1.93-5.67
			c-0.57-1.68-1.04-3.22-1.38-4.63h-0.04c-0.04,1.49-0.12,3.48-0.23,5.27l-0.32,5.11h-1.47l0.83-11.91h1.96l2.03,5.76
			c0.49,1.47,0.9,2.78,1.2,4.01h0.05c0.3-1.2,0.72-2.51,1.26-4.01l2.12-5.76h1.96l0.74,11.91h-1.5L79.38,26.3z"/>
		<path class="st0" d="M89.72,25.94h-4.63v4.3h5.16v1.29h-6.7V19.61h6.43v1.29h-4.9v3.77h4.63V25.94z"/>
		<path class="st0" d="M92.24,19.77c0.94-0.14,2.05-0.25,3.27-0.25c2.21,0,3.78,0.51,4.83,1.49c1.06,0.97,1.68,2.35,1.68,4.28
			c0,1.94-0.6,3.54-1.71,4.63c-1.11,1.11-2.95,1.71-5.27,1.71c-1.1,0-2.01-0.05-2.79-0.14V19.77z M93.78,30.31
			c0.39,0.07,0.95,0.09,1.56,0.09c3.29,0,5.07-1.84,5.07-5.06c0.02-2.81-1.57-4.6-4.83-4.6c-0.79,0-1.4,0.07-1.8,0.16V30.31z"/>
		<path class="st0" d="M105.55,19.61v11.91h-1.54V19.61H105.55z"/>
		<path class="st0" d="M116.56,31.14c-0.57,0.28-1.7,0.57-3.15,0.57c-3.36,0-5.89-2.12-5.89-6.03c0-3.73,2.53-6.26,6.22-6.26
			c1.49,0,2.42,0.32,2.83,0.53l-0.37,1.26c-0.58-0.28-1.41-0.49-2.4-0.49c-2.79,0-4.65,1.79-4.65,4.91c0,2.92,1.68,4.79,4.58,4.79
			c0.94,0,1.89-0.19,2.51-0.49L116.56,31.14z"/>
		<path class="st0" d="M120.49,27.78l-1.24,3.75h-1.59l4.05-11.91h1.86l4.07,11.91h-1.64l-1.27-3.75H120.49z M124.39,26.58
			l-1.17-3.43c-0.27-0.78-0.44-1.49-0.62-2.17h-0.04c-0.18,0.71-0.37,1.43-0.6,2.16l-1.17,3.45H124.39z"/>
	</g>
</g>
</svg>
