<svg width="50" height="50" viewBox="0 0 48 49" fill="#3d3d3df2" xmlns="http://www.w3.org/2000/svg">
<path fill-rule="evenodd" clip-rule="evenodd" d="M23.84 10.3288C25.0051 10.3288 25.9507 11.3064 25.9507 12.5108V23.7406L33.5208 31.5695C34.3426 32.4191 34.3426 33.8068 33.5208 34.6534C32.7019 35.5029 31.3595 35.5029 30.5378 34.6534L22.3457 26.1844C22.3232 26.1641 22.3176 26.135 22.2979 26.1117C22.1318 25.9255 21.9883 25.7161 21.8926 25.4775C21.7913 25.2302 21.7491 24.9684 21.7407 24.7065C21.7407 24.6862 21.7294 24.6687 21.7294 24.6454V12.5108C21.7294 11.3064 22.675 10.3288 23.84 10.3288ZM42.6759 9.9003C45.673 14.0169 47.6389 19.114 47.6389 24.6649C47.6389 38.2775 36.6675 48.5 23.5 48.5C10.3353 48.5 0 38.4986 0 24.8861C0 11.2735 10.6742 0 23.8389 0C28.8313 0 33.4465 1.60011 37.2766 4.31156L37.2428 4.3552C37.7775 4.75377 38.1434 5.37345 38.1434 6.10659C38.1434 7.32849 37.1894 8.31765 36.0074 8.31765C35.4643 8.31765 34.9803 8.09364 34.606 7.74743L34.5919 7.76489C31.4935 5.65274 27.8266 4.36393 23.8389 4.36393C13.0071 4.36393 4.22408 13.4467 4.22408 24.6446C4.22408 35.8453 13.0071 44.9252 23.8389 44.9252C34.6735 44.9252 43.4566 35.8453 43.4566 24.6446C43.4566 20.0537 41.965 15.8352 39.4745 12.4401L39.4998 12.4227C39.255 12.0648 39.0805 11.6517 39.0805 11.1833C39.0805 9.97885 40.0261 9.00133 41.1911 9.00133C41.8834 9.00133 42.4688 9.3679 42.8515 9.9003H42.6759Z" fill="#3d3d3df2"/>
</svg>
